<svg version="1.1" id="Layer_1" xmlns="http://www.w3.org/2000/svg" xmlns:xlink="http://www.w3.org/1999/xlink" x="0px" y="0px"
	 width="100%" viewBox="0 0 2000 2000" enable-background="new 0 0 2000 2000" xml:space="preserve">
<path fill="#FFFFFF" opacity="1.000000" stroke="none" 
	d="
M1810.000000,2001.000000 
	C1206.666626,2001.000000 603.833313,2001.000000 1.000000,2001.000000 
	C1.000000,1334.333374 1.000000,667.666687 1.000000,1.000000 
	C667.666687,1.000000 1334.333374,1.000000 2001.000000,1.000000 
	C2001.000000,667.666687 2001.000000,1334.333374 2001.000000,2001.000000 
	C1937.500000,2001.000000 1874.000000,2001.000000 1810.000000,2001.000000 
M563.259338,1060.103027 
	C540.561157,991.020386 517.829163,921.948792 495.268829,852.821167 
	C494.189972,849.515442 492.411407,849.454285 489.773438,849.459839 
	C465.778687,849.510193 441.782684,849.604553 417.789978,849.377991 
	C413.713043,849.339539 412.151215,850.540588 410.922729,854.410522 
	C386.909912,930.054626 362.728516,1005.645203 338.578644,1081.245728 
	C334.055847,1095.404297 329.520020,1109.558472 324.905914,1123.978027 
	C342.740112,1123.978027 360.026031,1123.978027 377.483887,1123.978027 
	C377.713348,1123.252563 377.910065,1122.653320 378.092651,1122.049927 
	C385.065216,1099.003296 392.204681,1076.004883 398.873230,1052.870728 
	C400.291840,1047.949341 402.344421,1046.630493 407.377686,1046.695679 
	C431.868347,1047.012207 456.365295,1046.838745 480.860046,1046.838745 
	C489.676086,1046.838745 498.492096,1046.838867 507.616119,1046.838867 
	C515.479370,1072.675293 523.290955,1098.342285 531.095093,1123.984741 
	C548.882385,1123.984741 566.342957,1123.984741 584.291199,1123.984741 
	C577.328064,1102.723145 570.466309,1081.771118 563.259338,1060.103027 
M986.996887,864.505188 
	C986.996887,950.945496 986.996887,1037.385864 986.996887,1123.798096 
	C1004.316772,1123.798096 1021.180115,1123.798096 1038.146240,1123.798096 
	C1038.146240,1092.935669 1038.015137,1062.444092 1038.235596,1031.954956 
	C1038.293091,1023.996704 1038.948730,1015.966919 1040.207520,1008.110596 
	C1042.257202,995.319214 1047.135498,983.681458 1057.941284,975.679382 
	C1069.757690,966.928955 1083.324219,966.840698 1097.115967,968.852478 
	C1109.297363,970.629517 1118.457520,977.197205 1122.734131,988.528015 
	C1125.970703,997.103027 1128.509155,1006.478088 1128.727905,1015.560486 
	C1129.553711,1049.869507 1129.306152,1084.204346 1129.458862,1118.529541 
	C1129.466797,1120.310303 1129.459961,1122.091064 1129.459961,1123.807617 
	C1145.932251,1123.807617 1161.824585,1123.807617 1177.920410,1123.807617 
	C1177.920410,1109.966064 1178.119141,1096.482300 1177.879395,1083.006226 
	C1177.363892,1054.038818 1177.247192,1025.042725 1175.731812,996.122986 
	C1174.866333,979.606628 1170.237915,963.640137 1160.283081,949.856323 
	C1146.887695,931.308655 1128.113159,924.319336 1105.826904,923.785034 
	C1073.800293,923.017151 1050.208374,938.815613 1039.988037,965.150024 
	C1039.753296,965.754944 1039.154297,966.218506 1037.940674,967.715820 
	C1037.940674,927.574707 1037.940674,888.695801 1037.940674,849.762573 
	C1020.750000,849.762573 1003.988037,849.762573 986.996887,849.762573 
	C986.996887,854.525452 986.996887,859.016724 986.996887,864.505188 
M1404.159058,1004.240112 
	C1401.646484,981.114441 1392.120117,961.389709 1374.551392,946.105652 
	C1349.797485,924.570557 1320.605347,919.258423 1289.068359,924.783020 
	C1256.106201,930.557251 1233.185181,949.665833 1220.572632,980.233337 
	C1207.255127,1012.509338 1208.966553,1045.147339 1223.413330,1076.629639 
	C1234.285400,1100.322266 1252.284668,1117.128174 1277.763916,1124.661621 
	C1295.088989,1129.784180 1312.865112,1130.432007 1330.699341,1127.889404 
	C1370.682129,1122.188721 1400.850708,1093.587524 1404.461792,1054.205566 
	C1388.496094,1054.205566 1372.548828,1054.205566 1356.633911,1054.205566 
	C1349.795288,1082.756958 1323.307373,1090.924438 1299.768188,1086.739990 
	C1272.195923,1081.838501 1258.855835,1059.584473 1259.627808,1029.926758 
	C1308.019409,1029.926758 1356.424438,1029.926758 1405.466187,1029.926758 
	C1405.046265,1021.359009 1404.648682,1013.249939 1404.159058,1004.240112 
M773.129028,1103.616821 
	C786.951111,1090.062622 794.434265,1073.541870 796.509827,1054.210693 
	C780.240417,1054.210693 764.291748,1054.210693 748.387939,1054.210693 
	C742.783875,1081.188110 716.337524,1091.394409 691.000122,1086.622437 
	C664.272583,1081.588867 650.292542,1059.016479 651.810181,1029.792969 
	C700.183167,1029.792969 748.582275,1029.792969 797.514282,1029.792969 
	C796.999695,1020.494202 796.957581,1011.642578 795.939087,1002.904724 
	C793.314148,980.383972 783.720215,961.165405 766.631348,946.174438 
	C742.836609,925.300903 714.527405,919.519226 684.080872,924.205078 
	C646.131348,930.045776 621.228882,952.357056 609.446533,988.518311 
	C599.955383,1017.647827 602.115601,1046.797974 614.457153,1074.763306 
	C624.457397,1097.423218 640.900085,1114.133667 664.445068,1122.930664 
	C680.802917,1129.042480 697.958740,1130.201172 715.166626,1128.787476 
	C736.953918,1126.997559 756.637817,1119.719116 773.129028,1103.616821 
M840.496582,958.842163 
	C844.611816,958.842163 848.727051,958.842163 853.190186,958.842163 
	C853.190186,961.115845 853.190247,962.909851 853.190247,964.703857 
	C853.190491,1000.355774 853.138733,1036.007812 853.242981,1071.659546 
	C853.259949,1077.470337 853.429260,1083.375000 854.448303,1089.071777 
	C858.599121,1112.276855 872.470703,1123.840210 896.338318,1124.134277 
	C912.162720,1124.329224 927.991455,1124.176147 943.818237,1124.158447 
	C944.592407,1124.157593 945.366333,1123.960938 946.077759,1123.863892 
	C946.077759,1110.836670 946.077759,1098.100342 946.077759,1084.969971 
	C930.471436,1084.969971 915.212158,1084.969971 899.903564,1084.969971 
	C899.903564,1042.818848 899.903564,1001.068970 899.903564,958.740417 
	C915.111511,958.740417 930.141724,958.740417 945.123413,958.740417 
	C945.123413,946.788757 945.123413,935.419800 945.123413,923.621277 
	C929.815063,923.621277 914.894409,923.621277 899.558716,923.621277 
	C899.558716,906.433411 899.558716,889.680420 899.558716,872.804077 
	C886.075317,872.804077 873.021240,872.804077 859.490845,872.804077 
	C859.490845,875.090210 859.685791,877.083984 859.457764,879.028076 
	C858.337463,888.580933 857.734802,898.256042 855.722412,907.624329 
	C853.952698,915.862305 848.222290,921.233582 839.470215,922.401184 
	C834.075317,923.120972 828.633118,923.485657 823.297485,924.001465 
	C823.297485,935.698730 823.297485,947.116333 823.297485,958.842163 
	C828.893616,958.842163 834.195801,958.842163 840.496582,958.842163 
M1493.996216,952.335510 
	C1493.343384,942.924438 1492.690430,933.513367 1492.043823,924.192444 
	C1476.348633,924.192444 1461.134766,924.192444 1446.033691,924.192444 
	C1446.033691,990.962219 1446.033691,1057.369263 1446.033691,1123.972656 
	C1462.522705,1123.972656 1478.782715,1123.972656 1495.554199,1123.972656 
	C1495.554199,1122.036255 1495.554077,1120.239380 1495.554077,1118.442627 
	C1495.553955,1092.455933 1495.413940,1066.468140 1495.640625,1040.483398 
	C1495.707153,1032.859741 1496.167480,1025.123657 1497.569214,1017.649475 
	C1501.665527,995.807373 1516.746216,985.388916 1537.340332,982.179260 
	C1550.592041,980.114075 1564.073486,979.521912 1577.756348,978.241089 
	C1577.756348,960.662415 1577.756348,942.429443 1577.756348,923.986877 
	C1538.509033,922.055908 1510.003296,936.847229 1495.544189,975.035889 
	C1495.038818,967.782715 1494.533447,960.529602 1493.996216,952.335510 
M1648.324097,1123.049194 
	C1656.289795,1121.274536 1661.528442,1116.444580 1664.368042,1108.851318 
	C1667.562134,1100.309570 1668.005615,1091.636597 1665.374268,1082.924683 
	C1663.288818,1076.020386 1659.849854,1069.887085 1652.592285,1067.312012 
	C1642.190552,1063.621216 1631.597168,1063.394409 1621.545776,1068.211182 
	C1618.198608,1069.815063 1614.977051,1072.955688 1613.140503,1076.208252 
	C1606.637329,1087.725464 1607.085938,1099.748169 1612.302124,1111.672852 
	C1614.718628,1117.197021 1619.106323,1121.253784 1624.866821,1122.124512 
	C1632.299072,1123.247803 1639.947876,1122.937500 1648.324097,1123.049194 
z"/>
<path fill="#010101" opacity="1.000000" stroke="none" 
	d="
M563.432007,1060.461060 
	C570.466309,1081.771118 577.328064,1102.723145 584.291199,1123.984741 
	C566.342957,1123.984741 548.882385,1123.984741 531.095093,1123.984741 
	C523.290955,1098.342285 515.479370,1072.675293 507.616119,1046.838867 
	C498.492096,1046.838867 489.676086,1046.838745 480.860046,1046.838745 
	C456.365295,1046.838745 431.868347,1047.012207 407.377686,1046.695679 
	C402.344421,1046.630493 400.291840,1047.949341 398.873230,1052.870728 
	C392.204681,1076.004883 385.065216,1099.003296 378.092651,1122.049927 
	C377.910065,1122.653320 377.713348,1123.252563 377.483887,1123.978027 
	C360.026031,1123.978027 342.740112,1123.978027 324.905914,1123.978027 
	C329.520020,1109.558472 334.055847,1095.404297 338.578644,1081.245728 
	C362.728516,1005.645203 386.909912,930.054626 410.922729,854.410522 
	C412.151215,850.540588 413.713043,849.339539 417.789978,849.377991 
	C441.782684,849.604553 465.778687,849.510193 489.773438,849.459839 
	C492.411407,849.454285 494.189972,849.515442 495.268829,852.821167 
	C517.829163,921.948792 540.561157,991.020386 563.432007,1060.461060 
M444.595520,902.049011 
	C433.953583,937.257751 423.311615,972.466431 412.568298,1008.010498 
	C440.591278,1008.010498 467.890289,1008.010498 495.837006,1008.010498 
	C482.022705,962.525757 468.300629,917.344666 454.578522,872.163574 
	C454.231659,872.200256 453.884796,872.237000 453.537933,872.273682 
	C450.643677,881.945129 447.749420,891.616577 444.595520,902.049011 
z"/>
<path fill="#010101" opacity="1.000000" stroke="none" 
	d="
M986.996887,864.006592 
	C986.996887,859.016724 986.996887,854.525452 986.996887,849.762573 
	C1003.988037,849.762573 1020.750000,849.762573 1037.940674,849.762573 
	C1037.940674,888.695801 1037.940674,927.574707 1037.940674,967.715820 
	C1039.154297,966.218506 1039.753296,965.754944 1039.988037,965.150024 
	C1050.208374,938.815613 1073.800293,923.017151 1105.826904,923.785034 
	C1128.113159,924.319336 1146.887695,931.308655 1160.283081,949.856323 
	C1170.237915,963.640137 1174.866333,979.606628 1175.731812,996.122986 
	C1177.247192,1025.042725 1177.363892,1054.038818 1177.879395,1083.006226 
	C1178.119141,1096.482300 1177.920410,1109.966064 1177.920410,1123.807617 
	C1161.824585,1123.807617 1145.932251,1123.807617 1129.459961,1123.807617 
	C1129.459961,1122.091064 1129.466797,1120.310303 1129.458862,1118.529541 
	C1129.306152,1084.204346 1129.553711,1049.869507 1128.727905,1015.560486 
	C1128.509155,1006.478088 1125.970703,997.103027 1122.734131,988.528015 
	C1118.457520,977.197205 1109.297363,970.629517 1097.115967,968.852478 
	C1083.324219,966.840698 1069.757690,966.928955 1057.941284,975.679382 
	C1047.135498,983.681458 1042.257202,995.319214 1040.207520,1008.110596 
	C1038.948730,1015.966919 1038.293091,1023.996704 1038.235596,1031.954956 
	C1038.015137,1062.444092 1038.146240,1092.935669 1038.146240,1123.798096 
	C1021.180115,1123.798096 1004.316772,1123.798096 986.996887,1123.798096 
	C986.996887,1037.385864 986.996887,950.945496 986.996887,864.006592 
z"/>
<path fill="#010101" opacity="1.000000" stroke="none" 
	d="
M1404.205078,1004.690491 
	C1404.648682,1013.249939 1405.046265,1021.359009 1405.466187,1029.926758 
	C1356.424438,1029.926758 1308.019409,1029.926758 1259.627808,1029.926758 
	C1258.855835,1059.584473 1272.195923,1081.838501 1299.768188,1086.739990 
	C1323.307373,1090.924438 1349.795288,1082.756958 1356.633911,1054.205566 
	C1372.548828,1054.205566 1388.496094,1054.205566 1404.461792,1054.205566 
	C1400.850708,1093.587524 1370.682129,1122.188721 1330.699341,1127.889404 
	C1312.865112,1130.432007 1295.088989,1129.784180 1277.763916,1124.661621 
	C1252.284668,1117.128174 1234.285400,1100.322266 1223.413330,1076.629639 
	C1208.966553,1045.147339 1207.255127,1012.509338 1220.572632,980.233337 
	C1233.185181,949.665833 1256.106201,930.557251 1289.068359,924.783020 
	C1320.605347,919.258423 1349.797485,924.570557 1374.551392,946.105652 
	C1392.120117,961.389709 1401.646484,981.114441 1404.205078,1004.690491 
M1296.888184,964.263916 
	C1276.307373,969.508118 1259.507568,990.112427 1261.575928,1007.606689 
	C1292.690063,1007.606689 1323.807251,1007.606689 1355.361938,1007.606689 
	C1354.826538,1004.396667 1354.468140,1001.444336 1353.830078,998.553772 
	C1349.949097,980.973816 1340.071289,968.498047 1322.035645,964.726013 
	C1314.233765,963.094360 1305.850220,964.244873 1296.888184,964.263916 
z"/>
<path fill="#010101" opacity="1.000000" stroke="none" 
	d="
M772.871826,1103.864380 
	C756.637817,1119.719116 736.953918,1126.997559 715.166626,1128.787476 
	C697.958740,1130.201172 680.802917,1129.042480 664.445068,1122.930664 
	C640.900085,1114.133667 624.457397,1097.423218 614.457153,1074.763306 
	C602.115601,1046.797974 599.955383,1017.647827 609.446533,988.518311 
	C621.228882,952.357056 646.131348,930.045776 684.080872,924.205078 
	C714.527405,919.519226 742.836609,925.300903 766.631348,946.174438 
	C783.720215,961.165405 793.314148,980.383972 795.939087,1002.904724 
	C796.957581,1011.642578 796.999695,1020.494202 797.514282,1029.792969 
	C748.582275,1029.792969 700.183167,1029.792969 651.810181,1029.792969 
	C650.292542,1059.016479 664.272583,1081.588867 691.000122,1086.622437 
	C716.337524,1091.394409 742.783875,1081.188110 748.387939,1054.210693 
	C764.291748,1054.210693 780.240417,1054.210693 796.509827,1054.210693 
	C794.434265,1073.541870 786.951111,1090.062622 772.871826,1103.864380 
M743.948486,991.675354 
	C735.333435,968.273376 714.980957,960.183350 689.174927,964.194885 
	C666.512939,967.717834 655.077698,988.168884 653.142456,1007.591309 
	C684.374084,1007.591309 715.582458,1007.591309 747.579346,1007.591309 
	C746.384888,1002.348938 745.256958,997.398499 743.948486,991.675354 
z"/>
<path fill="#020202" opacity="1.000000" stroke="none" 
	d="
M839.997253,958.842163 
	C834.195801,958.842163 828.893616,958.842163 823.297485,958.842163 
	C823.297485,947.116333 823.297485,935.698730 823.297485,924.001465 
	C828.633118,923.485657 834.075317,923.120972 839.470215,922.401184 
	C848.222290,921.233582 853.952698,915.862305 855.722412,907.624329 
	C857.734802,898.256042 858.337463,888.580933 859.457764,879.028076 
	C859.685791,877.083984 859.490845,875.090210 859.490845,872.804077 
	C873.021240,872.804077 886.075317,872.804077 899.558716,872.804077 
	C899.558716,889.680420 899.558716,906.433411 899.558716,923.621277 
	C914.894409,923.621277 929.815063,923.621277 945.123413,923.621277 
	C945.123413,935.419800 945.123413,946.788757 945.123413,958.740417 
	C930.141724,958.740417 915.111511,958.740417 899.903564,958.740417 
	C899.903564,1001.068970 899.903564,1042.818848 899.903564,1084.969971 
	C915.212158,1084.969971 930.471436,1084.969971 946.077759,1084.969971 
	C946.077759,1098.100342 946.077759,1110.836670 946.077759,1123.863892 
	C945.366333,1123.960938 944.592407,1124.157593 943.818237,1124.158447 
	C927.991455,1124.176147 912.162720,1124.329224 896.338318,1124.134277 
	C872.470703,1123.840210 858.599121,1112.276855 854.448303,1089.071777 
	C853.429260,1083.375000 853.259949,1077.470337 853.242981,1071.659546 
	C853.138733,1036.007812 853.190491,1000.355774 853.190247,964.703857 
	C853.190247,962.909851 853.190186,961.115845 853.190186,958.842163 
	C848.727051,958.842163 844.611816,958.842163 839.997253,958.842163 
z"/>
<path fill="#010101" opacity="1.000000" stroke="none" 
	d="
M1494.012207,952.805969 
	C1494.533447,960.529602 1495.038818,967.782715 1495.544189,975.035889 
	C1510.003296,936.847229 1538.509033,922.055908 1577.756348,923.986877 
	C1577.756348,942.429443 1577.756348,960.662415 1577.756348,978.241089 
	C1564.073486,979.521912 1550.592041,980.114075 1537.340332,982.179260 
	C1516.746216,985.388916 1501.665527,995.807373 1497.569214,1017.649475 
	C1496.167480,1025.123657 1495.707153,1032.859741 1495.640625,1040.483398 
	C1495.413940,1066.468140 1495.553955,1092.455933 1495.554077,1118.442627 
	C1495.554077,1120.239380 1495.554199,1122.036255 1495.554199,1123.972656 
	C1478.782715,1123.972656 1462.522705,1123.972656 1446.033691,1123.972656 
	C1446.033691,1057.369263 1446.033691,990.962219 1446.033691,924.192444 
	C1461.134766,924.192444 1476.348633,924.192444 1492.043823,924.192444 
	C1492.690430,933.513367 1493.343384,942.924438 1494.012207,952.805969 
z"/>
<path fill="#5F6BD2" opacity="1.000000" stroke="none" 
	d="
M1647.913818,1123.146973 
	C1639.947876,1122.937500 1632.299072,1123.247803 1624.866821,1122.124512 
	C1619.106323,1121.253784 1614.718628,1117.197021 1612.302124,1111.672852 
	C1607.085938,1099.748169 1606.637329,1087.725464 1613.140503,1076.208252 
	C1614.977051,1072.955688 1618.198608,1069.815063 1621.545776,1068.211182 
	C1631.597168,1063.394409 1642.190552,1063.621216 1652.592285,1067.312012 
	C1659.849854,1069.887085 1663.288818,1076.020386 1665.374268,1082.924683 
	C1668.005615,1091.636597 1667.562134,1100.309570 1664.368042,1108.851318 
	C1661.528442,1116.444580 1656.289795,1121.274536 1647.913818,1123.146973 
z"/>
<path fill="#FFFFFF" opacity="1.000000" stroke="none" 
	d="
M444.725342,901.668457 
	C447.749420,891.616577 450.643677,881.945129 453.537933,872.273682 
	C453.884796,872.237000 454.231659,872.200256 454.578522,872.163574 
	C468.300629,917.344666 482.022705,962.525757 495.837006,1008.010498 
	C467.890289,1008.010498 440.591278,1008.010498 412.568298,1008.010498 
	C423.311615,972.466431 433.953583,937.257751 444.725342,901.668457 
z"/>
<path fill="#FFFFFF" opacity="1.000000" stroke="none" 
	d="
M1297.309570,964.197754 
	C1305.850220,964.244873 1314.233765,963.094360 1322.035645,964.726013 
	C1340.071289,968.498047 1349.949097,980.973816 1353.830078,998.553772 
	C1354.468140,1001.444336 1354.826538,1004.396667 1355.361938,1007.606689 
	C1323.807251,1007.606689 1292.690063,1007.606689 1261.575928,1007.606689 
	C1259.507568,990.112427 1276.307373,969.508118 1297.309570,964.197754 
z"/>
<path fill="#FFFFFF" opacity="1.000000" stroke="none" 
	d="
M744.038696,992.061707 
	C745.256958,997.398499 746.384888,1002.348938 747.579346,1007.591309 
	C715.582458,1007.591309 684.374084,1007.591309 653.142456,1007.591309 
	C655.077698,988.168884 666.512939,967.717834 689.174927,964.194885 
	C714.980957,960.183350 735.333435,968.273376 744.038696,992.061707 
z"/>
</svg>